<?xml version="1.0" standalone="no"?>
<!DOCTYPE svg PUBLIC "-//W3C//DTD SVG 20010904//EN"
 "http://www.w3.org/TR/2001/REC-SVG-20010904/DTD/svg10.dtd">
<svg version="1.0" xmlns="http://www.w3.org/2000/svg"
 width="626.000000pt" height="626.000000pt" viewBox="0 0 626.000000 626.000000"
 preserveAspectRatio="xMidYMid meet">

<g transform="translate(0.000000,626.000000) scale(0.100000,-0.100000)"
fill="#000000" stroke="none">
<path d="M4240 4404 c-368 -44 -766 -167 -1035 -320 -91 -51 -76 -49 80 11
157 61 193 72 345 110 157 38 346 70 510 85 152 13 160 13 166 -7 43 -129 138
-244 247 -303 l64 -34 7 -271 c3 -148 8 -283 12 -300 5 -29 3 -31 -44 -47 -85
-30 -161 -116 -195 -220 -6 -16 -20 -17 -154 -11 -335 13 -782 -38 -1150 -132
-153 -39 -419 -127 -545 -180 -45 -19 -83 -33 -85 -31 -2 2 12 97 32 211 20
114 34 209 32 211 -2 2 -25 -69 -51 -159 -26 -89 -60 -207 -76 -262 -16 -55
-30 -102 -30 -105 0 -3 77 20 172 52 138 45 414 119 533 143 15 3 25 -6 40
-38 11 -23 40 -57 65 -76 25 -19 44 -37 43 -40 -14 -53 -14 -58 6 -64 16 -4
22 2 31 29 11 33 13 34 50 28 103 -17 196 65 214 187 l7 47 67 6 c155 13 641
18 771 7 74 -6 136 -12 138 -14 1 -2 -9 -44 -23 -93 -14 -49 -39 -150 -56
-224 -16 -74 -31 -137 -34 -139 -2 -2 -31 -8 -64 -13 -78 -10 -148 -46 -196
-101 l-40 -45 -85 29 c-526 176 -1111 258 -1633 229 -104 -6 -191 -8 -194 -6
-2 3 5 29 16 58 35 93 282 720 318 807 19 46 33 85 32 87 -3 2 -478 -991 -486
-1016 -3 -7 79 -10 235 -10 714 0 1460 -166 2107 -469 120 -56 116 -59 116 57
0 192 57 530 136 810 8 26 8 26 130 7 53 -9 98 -14 101 -12 2 3 -3 31 -11 63
-24 92 -64 323 -83 472 -23 178 -24 728 -2 900 l15 112 -226 -1 c-124 -1 -277
-7 -340 -15z m404 -113 c11 -17 -18 -261 -30 -261 -23 0 -122 75 -159 120 -34
41 -75 118 -75 141 0 12 257 12 264 0z m6 -1028 c0 -5 7 -48 15 -98 8 -49 15
-92 15 -95 0 -7 -207 13 -214 21 -14 13 62 116 108 147 46 31 76 40 76 25z
m-1240 -394 c0 -49 -75 -111 -102 -83 -12 12 25 96 46 104 42 17 56 12 56 -21z
m-130 -1 c-1 -7 -7 -26 -13 -42 l-13 -30 -22 22 c-37 37 -27 57 31 61 9 0 17
-5 17 -11z m1107 -500 c-3 -13 -9 -56 -13 -95 -3 -40 -10 -73 -15 -73 -9 0
-181 70 -188 76 -3 2 9 18 25 35 36 39 118 79 163 79 29 0 33 -3 28 -22z"/>
<path d="M3458 4014 c-3 -33 -6 -37 -56 -53 -28 -10 -62 -27 -73 -37 -35 -31
-59 -94 -59 -157 0 -97 32 -147 123 -187 l47 -21 0 -104 c0 -82 -3 -105 -14
-105 -24 0 -65 47 -71 84 l-7 36 -54 0 -54 0 6 -42 c9 -60 41 -124 72 -147 15
-10 47 -25 72 -33 43 -15 45 -16 42 -52 -3 -33 -1 -36 23 -36 23 0 25 4 25 40
0 35 3 40 23 40 38 1 103 36 130 71 49 65 59 177 22 249 -18 35 -65 71 -120
93 l-40 15 3 93 c1 51 5 95 7 98 10 10 55 -44 55 -66 0 -21 4 -23 55 -23 53 0
55 1 55 28 -1 39 -33 105 -65 130 -15 12 -45 27 -66 34 -36 10 -39 14 -39 50
0 31 -4 38 -19 38 -15 0 -20 -8 -23 -36z m-8 -244 c0 -49 -4 -90 -9 -90 -4 0
-20 11 -35 25 -34 32 -37 97 -4 132 40 43 48 31 48 -67z m87 -254 c24 -20 28
-32 27 -70 -1 -52 -32 -96 -67 -96 -18 0 -19 5 -13 53 3 28 6 71 6 95 0 48 8
51 47 18z"/>
<path d="M2094 3450 c-120 -60 -228 -116 -239 -125 l-20 -17 20 8 c11 4 113
41 227 83 l208 76 15 39 c9 21 14 40 12 42 -2 2 -102 -45 -223 -106z"/>
<path d="M1995 3201 c-141 -57 -447 -198 -380 -175 11 4 88 30 170 59 83 29
200 64 260 79 l110 27 17 40 c11 27 13 39 5 39 -7 0 -88 -31 -182 -69z"/>
<path d="M2531 3204 c0 -11 3 -14 6 -6 3 7 2 16 -1 19 -3 4 -6 -2 -5 -13z"/>
<path d="M1975 2949 c-101 -28 -248 -77 -335 -111 -128 -50 -291 -121 -287
-125 2 -2 25 5 51 16 124 54 426 138 554 156 48 6 54 10 72 46 11 21 19 39 18
38 -2 0 -34 -9 -73 -20z"/>
<path d="M1765 2650 c-255 -66 -526 -167 -720 -269 -89 -47 -88 -46 75 16 163
62 398 129 589 167 l164 33 24 47 c13 25 22 46 21 46 -2 -1 -70 -18 -153 -40z"/>
<path d="M2055 2400 c-423 -31 -811 -119 -1196 -271 -71 -28 -129 -53 -129
-56 0 -3 8 -2 18 2 9 3 86 26 171 51 287 83 593 144 916 181 214 25 807 24
1022 0 388 -45 787 -132 1098 -241 55 -19 101 -33 103 -31 6 5 -263 107 -413
156 -284 94 -591 159 -901 193 -175 19 -530 27 -689 16z"/>
</g>
</svg>
